<?xml version="1.0" encoding="UTF-8" standalone="no"?>
<svg
   xmlns:dc="http://purl.org/dc/elements/1.1/"
   xmlns:cc="http://creativecommons.org/ns#"
   xmlns:rdf="http://www.w3.org/1999/02/22-rdf-syntax-ns#"
   xmlns:svg="http://www.w3.org/2000/svg"
   xmlns="http://www.w3.org/2000/svg"
   height="71.212997"
   width="91.742996"
   id="svg2"
   xml:space="preserve"
   enable-background="new 0 0 100 100"
   viewBox="0 0 91.742996 71.212997"
   y="0px"
   x="0px"
   version="1.1"><metadata
     id="metadata28"><rdf:RDF><cc:Work
         rdf:about=""><dc:format>image/svg+xml</dc:format><dc:type
           rdf:resource="http://purl.org/dc/dcmitype/StillImage" /><dc:title></dc:title></cc:Work></rdf:RDF></metadata><defs
     id="defs26" /><path
     id="path4"
     d="M 59.385,0.114 C 59.364,0.075 59.343,0.036 59.323,0 L 2.707,31.899 c 0.022,0.038 0.045,0.073 0.066,0.112 1.895,3.362 0.705,7.624 -2.658,9.519 C 0.076,41.552 0.037,41.571 0,41.592 l 12.871,22.842 c 0.038,-0.022 0.073,-0.047 0.111,-0.067 3.362,-1.893 7.625,-0.702 9.52,2.661 L 79.114,35.129 C 77.218,31.766 78.407,27.504 81.769,25.61 L 68.902,2.771 C 65.541,4.666 61.279,3.476 59.385,0.114 Z m 18.612,24.763 c -2.243,2.373 -3.179,5.728 -2.49,8.917 L 23.23,63.25 C 20.827,60.978 17.41,60.045 14.182,60.788 L 3.796,42.357 c 2.34,-2.408 3.308,-5.875 2.553,-9.146 L 58.557,3.794 c 2.374,2.309 5.781,3.284 9.016,2.584 l 10.424,18.499 z" /><g
     transform="translate(-4,-14.001)"
     id="g6"><path
       id="path8"
       d="M 62.416,19.061 11.505,47.748 c 0.479,3.106 -0.424,6.339 -2.442,8.752 l 9.655,17.136 c 3.091,-0.484 6.229,0.369 8.646,2.354 L 78.36,47.256 c -0.438,-3.045 0.425,-6.131 2.375,-8.509 l -9.704,-17.22 c -3.094,0.444 -6.223,-0.449 -8.615,-2.466 z m -31.081,41.984 -4.761,-0.554 -1.994,4.358 -0.949,-4.694 -4.76,-0.554 4.175,-2.351 -0.947,-4.698 3.528,3.244 4.174,-2.354 -1.994,4.357 3.528,3.246 z m 13.12,-7.393 -4.76,-0.553 -1.995,4.359 -0.947,-4.696 -4.76,-0.553 4.175,-2.352 -0.947,-4.698 3.528,3.245 4.175,-2.353 -1.996,4.357 3.527,3.244 z m 13.119,-7.393 -4.761,-0.551 -1.995,4.357 -0.947,-4.697 -4.761,-0.55 4.176,-2.353 -0.948,-4.698 3.527,3.243 4.177,-2.353 -1.998,4.357 3.53,3.245 z m 13.119,-7.392 -4.759,-0.552 -1.995,4.358 -0.946,-4.699 -4.76,-0.55 4.173,-2.352 -0.946,-4.699 3.527,3.243 4.174,-2.352 -1.993,4.357 3.525,3.246 z" /></g><path
     id="path10"
     d="m 84.756,31.019 c 0,-0.042 0.002,-0.084 0.002,-0.128 l -5.583,0 c -0.132,0.97 -0.03,1.975 0.326,2.931 l 2.725,0 c 0.938,3.177 3.427,5.693 6.586,6.676 l 0,21.233 c -3.115,0.967 -5.581,3.432 -6.548,6.549 l -59.999,0 c -0.006,-0.022 -0.016,-0.043 -0.023,-0.067 l -0.083,0.045 -0.444,-0.786 c -1.077,-1.912 -3.111,-3.101 -5.308,-3.101 -0.499,0 -0.996,0.063 -1.479,0.187 2.812,0.906 4.848,3.541 4.848,6.655 l 64.979,0 c 0,-3.862 3.13,-6.989 6.988,-6.989 l 0,-26.214 c -3.858,-10e-4 -6.987,-3.131 -6.987,-6.991 z" /><g
     transform="translate(-4,-14.001)"
     id="g12"><g
       id="g14"><polygon
         id="polygon16"
         points="62.974,61.515 60.69,62.801 62.557,62.801 " /></g><path
       id="path18"
       d="m 85.482,48.856 -1.483,0 0.347,0.616 -19.574,11.03 0.747,2.299 4.792,0 -3.878,2.816 1.482,4.555 -3.879,-2.814 -3.876,2.814 1.48,-4.555 -2.596,-1.888 -7.003,3.942 0.812,2.502 -2.293,-1.665 -22.606,12.737 57.579,0 c 1.112,-2.865 3.38,-5.133 6.247,-6.243 l 0,-19.771 c -2.917,-1.133 -5.203,-3.444 -6.298,-6.375 z m -2.509,21.318 -3.878,-2.815 -3.876,2.815 1.48,-4.556 -3.876,-2.816 4.793,0 1.479,-4.558 1.482,4.558 4.791,0 -3.876,2.816 1.481,4.556 z" /></g></svg>